<svg width="24" height="22" viewBox="0 0 24 22" fill="none" xmlns="http://www.w3.org/2000/svg">
<path d="M6.28594 3.96406L0.529686 9.72031C0.192186 10.0578 0 10.5219 0 11C0 11.4781 0.192186 11.9422 0.529686 12.2797L6.28594 18.0359C6.58594 18.3359 6.98906 18.5 7.41094 18.5C8.2875 18.5 9 17.7875 9 16.9109V14H15C15.8297 14 16.5 13.3297 16.5 12.5V9.5C16.5 8.67031 15.8297 8 15 8H9V5.08906C9 4.2125 8.2875 3.5 7.41094 3.5C6.98906 3.5 6.58594 3.66875 6.28594 3.96406ZM16.5 3.5H19.5C20.3297 3.5 21 4.17031 21 5V17C21 17.8297 20.3297 18.5 19.5 18.5H16.5C15.6703 18.5 15 19.1703 15 20C15 20.8297 15.6703 21.5 16.5 21.5H19.5C21.9844 21.5 24 19.4844 24 17V5C24 2.51562 21.9844 0.5 19.5 0.5H16.5C15.6703 0.5 15 1.17031 15 2C15 2.82969 15.6703 3.5 16.5 3.5Z" fill="white"/>
</svg>
