<svg width="69" height="53" viewBox="0 0 69 53" fill="none" xmlns="http://www.w3.org/2000/svg">
<path d="M30.1546 52.7562C31.4279 53.2056 32.7955 52.2714 32.7955 50.9233V6.29467C32.7955 5.79801 32.6068 5.30135 32.206 4.99389C29.8952 3.14914 24.5898 0.784088 17.7046 0.784088C11.7507 0.784088 6.18596 2.35685 2.86124 3.63398C1.529 4.15429 0.727295 5.47873 0.727295 6.90959V50.6986C0.727295 52.1058 2.23639 53.0873 3.56863 52.6498C7.28241 51.4081 13.1655 49.9773 17.7046 49.9773C21.7013 49.9773 27.0185 51.6328 30.1546 52.7562ZM39.2091 52.7562C42.3452 51.6328 47.6624 49.9773 51.6591 49.9773C56.1982 49.9773 62.0813 51.4081 65.7951 52.6498C67.1273 53.0991 68.6364 52.1058 68.6364 50.6986V6.90959C68.6364 5.47873 67.8347 4.15429 66.5024 3.64581C63.1777 2.35685 57.6129 0.784088 51.6591 0.784088C44.7739 0.784088 39.4685 3.14914 37.1577 4.99389C36.7686 5.30135 36.5682 5.79801 36.5682 6.29467V50.9233C36.5682 52.2714 37.9476 53.2056 39.2091 52.7562Z" fill="#29E7CD"/>
</svg>
